<svg width="50" height="55" viewBox="0 0 50 55" fill="none" xmlns="http://www.w3.org/2000/svg">
<g clip-path="url(#clip0_97_7346)">
<path d="M42.8816 24.9413C40.3789 29.5982 35.1321 31.8243 30.2238 30.6994L21.668 46.6188L24.9168 48.3715L32.3853 33.6364C38.4361 33.075 41.5365 30.8989 44.0395 26.242C46.3618 21.9207 44.5519 15.5544 41.4611 11.974C44.4821 15.4786 45.2032 20.6213 42.8816 24.9413Z" fill="url(#paint0_linear_97_7346)"/>
<path d="M42.5227 13.3901C42.5227 13.3921 42.5255 13.3941 42.5272 13.3964C42.5244 13.3941 42.5238 13.3912 42.5227 13.3886V13.3901Z" fill="url(#paint1_linear_97_7346)"/>
<path d="M45.0926 21.6978C45.5692 19.9733 45.8157 18.4517 45.7194 17.8075C45.5944 16.9677 43.2335 14.4249 42.6268 13.5532C44.1119 15.8887 45.0931 18.8716 45.0926 21.6978Z" fill="url(#paint2_linear_97_7346)"/>
<path d="M28.9417 27.0137L27.5852 29.6343L30.2238 30.6994C30.9971 30.8766 31.7794 30.9703 32.5577 30.9847C33.7877 30.9771 34.938 30.7511 35.9301 30.541C38.8023 29.7194 41.3535 27.7844 42.8816 24.9413C44.8992 21.1872 44.6177 16.8121 42.527 13.4305C44.5733 30.9784 28.9417 27.0137 28.9417 27.0137Z" fill="url(#paint3_linear_97_7346)"/>
<path d="M16.1007 51.0368L19.1365 51.3287L30.2239 30.6993L27.585 29.6343L16.1007 51.0368Z" fill="url(#paint4_linear_97_7346)"/>
<path d="M41.4611 11.9739C44.5519 15.5543 46.3618 21.9207 44.0395 26.2417C41.5365 30.8988 38.4361 33.075 32.3853 33.6363L24.9168 48.3715L25.4917 48.6816L24.6668 50.2166L26.2113 50.808L25.0043 53.0319C26.298 53.6147 28.0981 54.3556 30.1485 55H31.2716C32.5943 50.4482 36.6471 41.0648 48.4878 34.1568L49.9761 20.8778C50.1245 19.4734 49.5728 18.0918 48.5493 17.307L41.1614 11.6399C41.2638 11.7497 41.3636 11.8611 41.4611 11.9739Z" fill="url(#paint5_linear_97_7346)"/>
<path d="M31.2716 55H43.288C44.9348 55 46.3223 53.5857 46.5214 51.7049L48.4878 34.1568C36.6479 41.0643 32.5946 50.4477 31.2716 55Z" fill="url(#paint6_linear_97_7346)"/>
<path d="M23.6622 28.1727C21.7966 31.316 11.2076 51.0742 11.2076 51.0742L18.3935 54.2384L17.7571 53.8953L12.3763 50.9924L24.8428 27.7962C23.5634 26.5708 22.6074 25.082 22.0131 23.4643C21.9357 23.254 21.8667 23.0409 21.8016 22.8262L21.7991 22.823C21.7991 22.823 21.8306 25.9839 23.6622 28.1727Z" fill="url(#paint7_linear_97_7346)"/>
<path d="M13.7686 7.85849L13.7683 6.36109C13.8159 5.23311 12.8542 4.38719 11.8805 4.70081L5.49957 6.75525C7.56203 9.13949 11.3895 14.0668 14.2331 20.6672C17.7538 13.6713 19.2593 6.9613 19.8781 3.17209L13.7686 7.85849Z" fill="url(#paint8_linear_97_7346)"/>
<path d="M23.1931 0.629524L19.878 3.17208C19.2593 6.9613 17.7538 13.6713 14.233 20.6672C16.4639 25.8458 18.0883 32.0546 17.7793 38.8712C20.3324 34.1542 22.8415 29.5557 23.6622 28.1727C21.8306 25.9839 21.7991 22.8229 21.7991 22.8229L21.8016 22.8262C21.0117 20.218 21.139 17.3315 22.3495 14.6955C22.4506 14.4753 22.5567 14.2559 22.6732 14.0395C25.4078 8.95135 31.417 6.76509 36.6816 8.68142L37.87 9.11524L27.5209 1.17723L26.8066 0.629524C26.2597 0.209846 25.6296 0 24.9998 0C24.3699 0 23.74 0.209846 23.1931 0.629524Z" fill="url(#paint9_linear_97_7346)"/>
<path d="M5.1283 6.87496C4.57103 7.05425 4.22801 7.67594 4.33513 8.31026L5.35036 14.3155L1.45051 17.3071C0.426967 18.0919 -0.124745 19.4734 0.0239593 20.8779L1.48555 33.9199L1.75573 36.3302C7.50329 31.7715 11.4828 26.1322 14.2331 20.6673C11.3895 14.0668 7.56202 9.1395 5.49956 6.75527L5.1283 6.87496Z" fill="url(#paint10_linear_97_7346)"/>
<path d="M1.75574 36.3302L2.47734 42.7715L3.47845 51.7049C3.55885 52.4655 3.83609 53.1476 4.2439 53.6927C4.84476 54.496 5.73119 55 6.71189 55H6.82682H9.35883H13.2904H19.805L18.3935 54.2384L14.4947 52.5216L11.2076 51.0742C11.2076 51.0742 14.529 44.8767 17.7793 38.8712C18.0883 32.0546 16.4639 25.8458 14.2331 20.6672C11.4828 26.1321 7.5033 31.7715 1.75574 36.3302Z" fill="url(#paint11_linear_97_7346)"/>
<path d="M16.1007 51.0368L23.4245 55L23.9904 53.947L19.1365 51.3287L16.1007 51.0368Z" fill="url(#paint12_linear_97_7346)"/>
<path d="M20.3242 49.1195L24.0529 51.131L24.6668 50.2166L25.4918 48.6816L21.6681 46.6188L20.3242 49.1195Z" fill="url(#paint13_linear_97_7346)"/>
<path d="M27.4169 16.5985C26.8755 17.606 26.6466 18.6981 26.6953 19.7635C28.4618 20.396 31.6769 21.321 34.8481 20.9819C35.4903 17.3133 34.2475 14.7347 33.3361 13.4153C33.1516 13.3984 32.9668 13.39 32.7826 13.39C30.615 13.39 28.5165 14.5526 27.4169 16.5985Z" fill="url(#paint14_linear_97_7346)"/>
<path d="M33.3361 13.4153C34.2474 14.7347 35.4903 17.3134 34.848 20.9819C36.2368 20.8331 37.6165 20.4423 38.8623 19.6779C38.9294 17.4421 37.7632 15.2526 35.6637 14.1198C34.9191 13.7183 34.1282 13.488 33.3361 13.4153Z" fill="url(#paint15_linear_97_7346)"/>
<path d="M29.8909 24.861C30.9462 25.4299 32.094 25.6536 33.2068 25.5738C34.1002 23.8941 34.6066 22.3614 34.848 20.9819C31.6769 21.321 28.4618 20.396 26.6953 19.7635C26.7898 21.8349 27.9361 23.8062 29.8909 24.861Z" fill="url(#paint16_linear_97_7346)"/>
<path d="M34.8481 20.9819C34.6066 22.3614 34.1003 23.8941 33.2068 25.5739C35.2166 25.4294 37.1119 24.2911 38.138 22.3821C38.6012 21.52 38.8346 20.5958 38.8623 19.6794V19.6782C37.6165 20.4423 36.2368 20.8332 34.8481 20.9819Z" fill="url(#paint17_linear_97_7346)"/>
<path d="M24.6668 50.2166L24.0529 51.131L20.3239 49.1195L19.1365 51.3287L23.9904 53.947L23.4245 55H24.9998H30.1485C28.0981 54.3556 26.2981 53.6147 25.0043 53.0319L26.2114 50.808L25.4918 48.6008L24.6668 50.2166Z" fill="url(#paint18_linear_97_7346)"/>
</g>
<defs>
<linearGradient id="paint0_linear_97_7346" x1="66.3715" y1="-26.1639" x2="36.8038" y2="25.1249" gradientUnits="userSpaceOnUse">
<stop stop-color="#F9C379"/>
<stop offset="0.0108108" stop-color="#F9C379"/>
<stop offset="0.286486" stop-color="#FC895C"/>
<stop offset="0.581081" stop-color="#ED4870"/>
<stop offset="0.999999" stop-color="#C80F61"/>
<stop offset="1" stop-color="#C80F61"/>
</linearGradient>
<linearGradient id="paint1_linear_97_7346" x1="42.5268" y1="13.3884" x2="42.5235" y2="13.3956" gradientUnits="userSpaceOnUse">
<stop stop-color="#F5F4F8"/>
<stop offset="1" stop-color="#E0DCE8"/>
</linearGradient>
<linearGradient id="paint2_linear_97_7346" x1="46.5588" y1="12.4525" x2="42.4297" y2="21.5559" gradientUnits="userSpaceOnUse">
<stop stop-color="#F5F4F8"/>
<stop offset="1" stop-color="#E0DCE8"/>
</linearGradient>
<linearGradient id="paint3_linear_97_7346" x1="44.1405" y1="4.72932" x2="30.6351" y2="34.5042" gradientUnits="userSpaceOnUse">
<stop stop-color="#F5F4F8"/>
<stop offset="1" stop-color="#E0DCE8"/>
</linearGradient>
<linearGradient id="paint4_linear_97_7346" x1="32.1489" y1="20.5949" x2="16.4324" y2="55.2444" gradientUnits="userSpaceOnUse">
<stop stop-color="#F5F4F8"/>
<stop offset="1" stop-color="#E0DCE8"/>
</linearGradient>
<linearGradient id="paint5_linear_97_7346" x1="46.5182" y1="12.1683" x2="25.1207" y2="61.5956" gradientUnits="userSpaceOnUse">
<stop stop-color="#F9C379"/>
<stop offset="0.0108108" stop-color="#F9C379"/>
<stop offset="0.286486" stop-color="#FC895C"/>
<stop offset="0.581081" stop-color="#ED4870"/>
<stop offset="1" stop-color="#D40F7B"/>
</linearGradient>
<linearGradient id="paint6_linear_97_7346" x1="52.7031" y1="14.8458" x2="30.0606" y2="67.1491" gradientUnits="userSpaceOnUse">
<stop stop-color="#F9C379"/>
<stop offset="0.0108108" stop-color="#F9C379"/>
<stop offset="0.48181" stop-color="#FC895C"/>
<stop offset="0.745469" stop-color="#ED4870"/>
<stop offset="1" stop-color="#D40F7B"/>
</linearGradient>
<linearGradient id="paint7_linear_97_7346" x1="31.4659" y1="2.69969" x2="12.0736" y2="54.2036" gradientUnits="userSpaceOnUse">
<stop stop-color="#0A4CAC"/>
<stop offset="1" stop-color="#0A4CAC"/>
</linearGradient>
<linearGradient id="paint8_linear_97_7346" x1="18.0432" y1="-2.35427" x2="-1.34909" y2="49.1496" gradientUnits="userSpaceOnUse">
<stop stop-color="#4BDCD5"/>
<stop offset="0.247711" stop-color="#1EAFCA"/>
<stop offset="0.5558" stop-color="#1EAFCA"/>
<stop offset="1" stop-color="#0A62CC"/>
</linearGradient>
<linearGradient id="paint9_linear_97_7346" x1="33.0401" y1="0.805169" x2="13.6478" y2="52.309" gradientUnits="userSpaceOnUse">
<stop stop-color="#4BDCD5"/>
<stop offset="0.0108108" stop-color="#4BDCD5"/>
<stop offset="0.177256" stop-color="#1EAFCA"/>
<stop offset="0.272883" stop-color="#1EAFCA"/>
<stop offset="0.696219" stop-color="#1EAFCA"/>
<stop offset="1" stop-color="#0A62CC"/>
</linearGradient>
<linearGradient id="paint10_linear_97_7346" x1="16.2689" y1="-3.02234" x2="-3.12342" y2="48.4815" gradientUnits="userSpaceOnUse">
<stop stop-color="#4BDCD5"/>
<stop offset="0.0108108" stop-color="#4BDCD5"/>
<stop offset="0.431056" stop-color="#1EAFCA"/>
<stop offset="0.660526" stop-color="#1EAFCA"/>
<stop offset="1" stop-color="#0A62CC"/>
</linearGradient>
<linearGradient id="paint11_linear_97_7346" x1="24.8886" y1="0.223149" x2="5.49622" y2="51.7272" gradientUnits="userSpaceOnUse">
<stop stop-color="#4BDCD5"/>
<stop offset="0.0108108" stop-color="#4BDCD5"/>
<stop offset="0.316218" stop-color="#1EAFCA"/>
<stop offset="0.500794" stop-color="#1EAFCA"/>
<stop offset="1" stop-color="#0A62CC"/>
</linearGradient>
<linearGradient id="paint12_linear_97_7346" x1="20.7903" y1="51.033" x2="19.503" y2="54.4519" gradientUnits="userSpaceOnUse">
<stop stop-color="#F5F4F8"/>
<stop offset="1" stop-color="#E0DCE8"/>
</linearGradient>
<linearGradient id="paint13_linear_97_7346" x1="24.0264" y1="45.8932" x2="21.7643" y2="51.9011" gradientUnits="userSpaceOnUse">
<stop stop-color="#F5F4F8"/>
<stop offset="1" stop-color="#E0DCE8"/>
</linearGradient>
<linearGradient id="paint14_linear_97_7346" x1="30.9945" y1="13.5888" x2="31.2194" y2="25.002" gradientUnits="userSpaceOnUse">
<stop stop-color="#8EA0AE"/>
<stop offset="0.667172" stop-color="#5F6C7C"/>
<stop offset="0.7037" stop-color="#5F6C7C"/>
<stop offset="0.861804" stop-color="#5F6C7C"/>
<stop offset="1" stop-color="#3B4858"/>
</linearGradient>
<linearGradient id="paint15_linear_97_7346" x1="36.0599" y1="13.489" x2="36.2848" y2="24.9022" gradientUnits="userSpaceOnUse">
<stop stop-color="#8EA0AE"/>
<stop offset="0.948092" stop-color="#5F6C7C"/>
<stop offset="1" stop-color="#5F6C7C"/>
</linearGradient>
<linearGradient id="paint16_linear_97_7346" x1="30.5927" y1="13.5968" x2="30.9062" y2="29.5025" gradientUnits="userSpaceOnUse">
<stop stop-color="#8EA0AE"/>
<stop offset="0.413721" stop-color="#5F6C7C"/>
<stop offset="0.436372" stop-color="#5F6C7C"/>
<stop offset="0.624715" stop-color="#3B4858"/>
<stop offset="0.766548" stop-color="#3B4858"/>
<stop offset="1" stop-color="#3B4858"/>
</linearGradient>
<linearGradient id="paint17_linear_97_7346" x1="35.8552" y1="13.493" x2="36.0802" y2="24.9062" gradientUnits="userSpaceOnUse">
<stop stop-color="#8EA0AE"/>
<stop offset="0.536753" stop-color="#5F6C7C"/>
<stop offset="0.56614" stop-color="#5F6C7C"/>
<stop offset="0.787249" stop-color="#3B4858"/>
<stop offset="1" stop-color="#3B4858"/>
</linearGradient>
<linearGradient id="paint18_linear_97_7346" x1="29.9679" y1="42.5283" x2="25.0945" y2="50.9818" gradientUnits="userSpaceOnUse">
<stop stop-color="#F9C379"/>
<stop offset="0.0108108" stop-color="#F9C379"/>
<stop offset="0.286486" stop-color="#FC895C"/>
<stop offset="0.581081" stop-color="#ED4870"/>
<stop offset="0.999999" stop-color="#C80F61"/>
<stop offset="1" stop-color="#C80F61"/>
</linearGradient>
<clipPath id="clip0_97_7346">
<rect width="50" height="55" fill="white"/>
</clipPath>
</defs>
</svg>
